# File created by Blade
# Date/Time:  Thu Jan 22 16:53:03 2015
#---------------------------------------------------------
:version 1.10
:name HOM
:units
  mass 1.0
  length 1.000000
  angle deg
:documentation
     Acclaim Skeleton File
:root
   axis xyz
   order TX TY TZ RX RY RZ
   position 0.000000 0.000000 0.000000
   orientation 0 0 0
:bonedata
   begin
      id 1
      name RightUpLeg_dum
      direction -1.000000 0.000000 0.000000
      length 3.766986
      axis 0.0 0.0 0.0 xyz
   end
   begin
      id 2
      name LeftUpLeg_dum
      direction 1.000000 0.000000 0.000000
      length 3.766986
      axis 0.0 0.0 0.0 xyz
   end
   begin
      id 3
      name Spine_dum
      direction 0.000000 1.000000 0.000000
      length 7.779697
      axis 0.0 0.0 0.0 xyz
   end
   begin
      id 4
      name RightUpLeg
      direction 0.000000 -1.000000 0.000000
      length 18.017682
      axis 0.0 0.0 0.0 xyz
      dof rx ry rz
   end
   begin
      id 5
      name RightLeg
      direction 0.000000 -1.000000 0.000000
      length 16.881075
      axis 0.0 0.0 0.0 xyz
      dof rx ry rz
   end
   begin
      id 6
      name RightFoot
      direction 0.000000 -0.258819 0.965926
      length 5.770812
      axis 15.0 0.0 0.0 xyz
      dof rx ry rz
   end
   begin
      id 7
      name RightToeBase
      direction 0.000000 0.000000 1.000000
      length 2.952750
      axis 0.0 0.0 0.0 xyz
      dof rx ry rz
   end
   begin
      id 8
      name LeftUpLeg
      direction 0.000000 -1.000000 0.000000
      length 18.017682
      axis 0.0 0.0 0.0 xyz
      dof rx ry rz
   end
   begin
      id 9
      name LeftLeg
      direction 0.000000 -1.000000 0.000000
      length 16.881075
      axis 0.0 0.0 0.0 xyz
      dof rx ry rz
   end
   begin
      id 10
      name LeftFoot
      direction 0.000000 -0.258819 0.965926
      length 5.770812
      axis 15.0 0.0 0.0 xyz
      dof rx ry rz
   end
   begin
      id 11
      name LeftToeBase
      direction 0.000000 0.000000 1.000000
      length 2.952750
      axis 0.0 0.0 0.0 xyz
      dof rx ry rz
   end
   begin
      id 12
      name Spine
      direction 0.000000 1.000000 0.000000
      length 0.000000
      axis 0.0 0.0 0.0 xyz
      dof rx ry rz
   end
   begin
      id 13
      name Spine_dum1
      direction 0.000000 1.000000 0.000000
      length 10.941760
      axis 0.0 0.0 0.0 xyz
   end
   begin
      id 14
      name Spine_dum2
      direction 0.000000 1.000000 0.000000
      length 10.941760
      axis 0.0 0.0 0.0 xyz
   end
   begin
      id 15
      name Spine_dum3
      direction 0.000000 1.000000 0.000000
      length 16.646042
      axis 0.0 0.0 0.0 xyz
   end
   begin
      id 16
      name RightShoulder
      direction -1.000000 0.000000 0.000000
      length 7.708937
      axis 0.0 0.0 90.0 xyz
      dof rx ry rz
   end
   begin
      id 17
      name RightArm
      direction -1.000000 0.000000 0.000000
      length 11.521345
      axis 0.0 0.0 90.0 xyz
      dof rx ry rz
   end
   begin
      id 18
      name RightForeArm
      direction -1.000000 0.000000 0.000000
      length 10.175898
      axis 0.0 0.0 90.0 xyz
      dof ry rz rx
   end
   begin
      id 19
      name RightHand
      direction -1.000000 0.000000 0.000000
      length 0.000000
      axis 0.0 0.0 90.0 xyz
      dof rx ry rz
   end
   begin
      id 20
      name RightHand_dum1
      direction -1.000000 0.000000 0.000000
      length 3.937000
      axis 0.0 0.0 90.0 xyz
   end
   begin
      id 21
      name RightHand_dum2
      direction 0.000000 0.000000 0.000000
      length 0.000000
      axis 0.0 0.0 90.0 xyz
   end
   begin
      id 22
      name RightHandThumb1
      direction 0.000000 0.000000 1.000000
      length 3.937000
      axis 0.0 0.0 90.0 xyz
      dof rx rz ry
   end
   begin
      id 23
      name LeftShoulder
      direction 1.000000 0.000000 0.000000
      length 7.708937
      axis 0.0 0.0 -90.0 xyz
      dof rx ry rz
   end
   begin
      id 24
      name LeftArm
      direction 1.000000 0.000000 0.000000
      length 11.521345
      axis 0.0 0.0 -90.0 xyz
      dof rx ry rz
   end
   begin
      id 25
      name LeftForeArm
      direction 1.000000 0.000000 0.000000
      length 10.175898
      axis 0.0 0.0 -90.0 xyz
      dof ry rz rx
   end
   begin
      id 26
      name LeftHand
      direction 1.000000 0.000000 0.000000
      length 0.000000
      axis 0.0 0.0 -90.0 xyz
      dof rx ry rz
   end
   begin
      id 27
      name LeftHand_dum1
      direction 1.000000 0.000000 0.000000
      length 3.937000
      axis 0.0 0.0 -90.0 xyz
   end
   begin
      id 28
      name LeftHand_dum2
      direction 0.000000 0.000000 0.000000
      length 0.000000
      axis 0.0 0.0 -90.0 xyz
   end
   begin
      id 29
      name LeftHandThumb1
      direction 0.000000 0.000000 1.000000
      length 3.937000
      axis 0.0 0.0 -90.0 xyz
      dof rx rz ry
   end
   begin
      id 30
      name Head
      direction 0.000000 1.000000 0.000000
      length 4.527550
      axis 0.0 0.0 0.0 xyz
      dof rx ry rz
   end
:hierarchy
   begin
      root RightUpLeg_dum LeftUpLeg_dum Spine_dum
      RightUpLeg_dum RightUpLeg
      LeftUpLeg_dum LeftUpLeg
      Spine_dum Spine
      RightUpLeg RightLeg
      RightLeg RightFoot
      RightFoot RightToeBase
      LeftUpLeg LeftLeg
      LeftLeg LeftFoot
      LeftFoot LeftToeBase
      Spine Spine_dum1 Spine_dum2 Spine_dum3
      Spine_dum1 RightShoulder
      Spine_dum2 LeftShoulder
      Spine_dum3 Head
      RightShoulder RightArm
      RightArm RightForeArm
      RightForeArm RightHand
      RightHand RightHand_dum1 RightHand_dum2
      RightHand_dum2 RightHandThumb1
      LeftShoulder LeftArm
      LeftArm LeftForeArm
      LeftForeArm LeftHand
      LeftHand LeftHand_dum1 LeftHand_dum2
      LeftHand_dum2 LeftHandThumb1
   end

# File created by Blade
# Date/Time:  Thu Jan 22 16:52:56 2015
# Frame Rate: 120.000 fps
#------------------------------------------------------
:FULLY-SPECIFIED
:DEGREES
342
root 7.037618 29.691074 3.797566 16.689912 -22.193728 9.980052
RightUpLeg -74.105912 1.621131 -12.472304
RightLeg 68.156082 -0.000000 -0.000000
RightFoot -23.327846 -13.844825 17.494989
RightToeBase 16.933673 -0.000000 -0.000000
LeftUpLeg -67.899479 4.057111 -8.349338
LeftLeg 67.851378 -0.000000 -0.000000
LeftFoot -26.363001 18.994339 -20.237417
LeftToeBase 7.475434 -0.000000 -0.000000
Spine 71.446470 -11.155845 7.965771
RightShoulder 17.552080 -2.073152 -21.764508
RightArm 28.834130 15.327403 49.876607
RightForeArm 21.890713 -0.000000 28.361294
RightHand 11.838055 -0.000000 -13.122345
RightHandThumb1 -24.326973 -0.000000 -32.862282
LeftShoulder -5.551225 21.386115 26.435452
LeftArm 65.372502 1.077720 -54.556833
LeftForeArm 12.708147 -0.000000 31.555242
LeftHand -14.625317 0.000000 1.652773
LeftHandThumb1 -26.253704 0.000000 33.147579
Head 9.672421 -20.867733 10.525884
343
root 7.092454 29.460541 3.801437 16.575001 -22.422821 10.029521
RightUpLeg -74.845979 1.660972 -12.583886
RightLeg 69.354731 -0.000000 -0.000000
RightFoot -23.710567 -13.555728 17.681537
RightToeBase 16.891276 -0.000000 -0.000000
LeftUpLeg -68.575573 4.253407 -8.549090
LeftLeg 69.119782 -0.000000 -0.000000
LeftFoot -26.830136 18.919700 -20.041950
LeftToeBase 7.244398 -0.000000 -0.000000
Spine 71.720719 -11.277845 8.083587
RightShoulder 17.552448 -2.140416 -21.864953
RightArm 28.740322 15.686998 49.771538
RightForeArm 22.006822 -0.000000 28.098937
RightHand 11.834826 -0.000000 -13.076219
RightHandThumb1 -24.326973 -0.000000 -32.862282
LeftShoulder -5.509057 21.485688 26.455757
LeftArm 65.075858 1.314889 -54.349788
LeftForeArm 12.630468 -0.000000 31.591565
LeftHand -14.499008 -0.000000 1.786626
LeftHandThumb1 -26.253704 0.000000 33.147579
Head 9.795842 -20.730323 10.237228
344
root 7.141571 29.222709 3.803415 16.442846 -22.671867 10.098839
RightUpLeg -75.595291 1.769825 -12.746269
RightLeg 70.568192 -0.000000 -0.000000
RightFoot -24.165618 -13.357077 17.927576
RightToeBase 17.005549 -0.000000 -0.000000
LeftUpLeg -69.263154 4.514846 -8.785229
LeftLeg 70.413930 -0.000000 -0.000000
LeftFoot -27.292550 18.775845 -19.905406
LeftToeBase 7.010722 -0.000000 -0.000000
Spine 71.961113 -11.372344 8.142989
RightShoulder 17.581774 -2.117865 -21.917860
RightArm 28.589924 16.015269 49.717930
RightForeArm 22.303970 0.000000 27.803790
RightHand 11.820669 -0.000000 -12.887622
RightHandThumb1 -24.326973 -0.000000 -32.862282
LeftShoulder -5.473667 21.608223 26.469542
LeftArm 64.714159 1.576955 -54.072879
LeftForeArm 12.452914 -0.000000 31.730507
LeftHand -14.525207 -0.000000 1.745683
LeftHandThumb1 -26.253704 0.000000 33.147579
Head 9.970174 -20.564012 9.905159
345
root 7.193414 28.990700 3.808194 16.267181 -22.824736 10.204430
RightUpLeg -76.253168 1.777430 -12.907361
RightLeg 71.746635 -0.000000 -0.000000
RightFoot -24.616369 -13.165069 18.081943
RightToeBase 16.978085 -0.000000 -0.000000
LeftUpLeg -69.880513 4.665514 -9.031913
LeftLeg 71.654819 -0.000000 -0.000000
LeftFoot -27.745293 18.683417 -19.791212
LeftToeBase 6.809195 -0.000000 -0.000000
Spine 72.217211 -11.566978 8.235511
RightShoulder 17.552571 -1.971781 -21.914739
RightArm 28.355058 16.272312 49.619848
RightForeArm 22.738193 -0.000000 27.464075
RightHand 12.017591 -0.000000 -12.794773
RightHandThumb1 -24.326973 -0.000000 -32.862282
LeftShoulder -5.435476 21.817861 26.441075
LeftArm 64.457549 1.816210 -53.677933
LeftForeArm 12.424636 0.000000 31.874030
LeftHand -14.435068 -0.000000 1.937315
LeftHandThumb1 -26.253704 0.000000 33.147579
Head 10.061766 -20.337543 9.605991
346
root 7.250725 28.751031 3.823127 16.005143 -23.035989 10.373738
RightUpLeg -76.887484 1.809668 -13.150560
RightLeg 72.969579 -0.000000 -0.000000
RightFoot -25.139614 -12.892423 18.372796
RightToeBase 16.697459 -0.000000 -0.000000
LeftUpLeg -70.426245 4.772662 -9.294747
LeftLeg 72.910888 -0.000000 -0.000000
LeftFoot -28.314177 18.616434 -19.917332
LeftToeBase 6.667444 -0.000000 -0.000000
Spine 72.487064 -11.734369 8.231942
RightShoulder 17.565911 -2.000039 -21.983462
RightArm 28.240980 16.693669 49.645435
RightForeArm 23.211886 -0.000000 27.137817
RightHand 12.035224 -0.000000 -12.724976
RightHandThumb1 -24.326973 -0.000000 -32.862282
LeftShoulder -5.392818 22.057171 26.427343
LeftArm 64.133845 2.069835 -53.358522
LeftForeArm 12.180319 -0.000000 32.162108
LeftHand -14.514138 -0.000000 1.903382
LeftHandThumb1 -26.253704 0.000000 33.147579
Head 10.151241 -20.155881 9.265765
347
root 7.300255 28.506900 3.829227 15.770417 -23.194622 10.531248
RightUpLeg -77.577891 1.760901 -13.289161
RightLeg 74.231034 -0.000000 -0.000000
RightFoot -25.451204 -12.717065 18.359523
RightToeBase 16.470586 -0.000000 -0.000000
LeftUpLeg -71.006995 4.940875 -9.573133
LeftLeg 74.150633 -0.000000 -0.000000
LeftFoot -28.797105 18.467303 -19.893845
LeftToeBase 6.493161 -0.000000 -0.000000
Spine 72.680274 -11.913173 8.246351
RightShoulder 17.590654 -2.065205 -21.992247
RightArm 28.127812 17.028884 49.578194
RightForeArm 23.812567 -0.000000 26.783550
RightHand 12.130551 -0.000000 -12.720230
RightHandThumb1 -24.326973 -0.000000 -32.862282
LeftShoulder -5.307137 22.118641 26.463929
LeftArm 63.607652 2.502862 -53.000204
LeftForeArm 12.216471 -0.000000 32.414307
LeftHand -14.339979 0.000000 2.328409
LeftHandThumb1 -26.253704 0.000000 33.147579
Head 10.268621 -19.857845 8.977084
348
root 7.323983 28.269719 3.810285 15.722033 -23.362445 10.418253
RightUpLeg -78.321915 1.708996 -13.037041
RightLeg 75.359779 -0.000000 -0.000000
RightFoot -25.699207 -12.576313 18.325435
RightToeBase 16.452662 -0.000000 -0.000000
LeftUpLeg -71.730975 5.269145 -9.636313
LeftLeg 75.399613 -0.000000 -0.000000
LeftFoot -29.195148 18.306894 -19.792818
LeftToeBase 6.383349 -0.000000 -0.000000
Spine 72.806430 -12.025842 8.507749
RightShoulder 17.644732 -2.051196 -22.055158
RightArm 28.000423 17.444509 49.635254
RightForeArm 24.350137 0.000000 26.391561
RightHand 12.076556 0.000000 -12.674547
RightHandThumb1 -24.326973 -0.000000 -32.862282
LeftShoulder -5.225511 22.304182 26.448815
LeftArm 63.095086 2.789109 -52.714105
LeftForeArm 11.736976 -0.000000 32.876666
LeftHand -14.414892 -0.000000 2.236865
LeftHandThumb1 -26.253704 0.000000 33.147579
Head 10.283232 -19.409255 8.637155
349
root 7.374721 28.023242 3.807011 15.544773 -23.526105 10.587815
RightUpLeg -79.065187 1.623046 -13.181568
RightLeg 76.556275 -0.000000 -0.000000
RightFoot -26.040961 -12.304013 18.400036
RightToeBase 16.744554 -0.000000 -0.000000
LeftUpLeg -72.394224 5.488407 -9.970999
LeftLeg 76.611619 -0.000000 -0.000000
LeftFoot -29.609688 18.110361 -19.736898
LeftToeBase 6.331894 -0.000000 -0.000000
Spine 72.855693 -12.194000 8.515638
RightShoulder 17.678804 -2.051743 -22.075162
RightArm 27.882445 17.812538 49.710514
RightForeArm 24.886093 -0.000000 25.983328
RightHand 12.138218 -0.000000 -12.624721
RightHandThumb1 -24.326973 -0.000000 -32.862282
LeftShoulder -5.108213 22.549117 26.468400
LeftArm 62.535013 3.169148 -52.383324
LeftForeArm 11.562432 -0.000000 33.338094
LeftHand -14.336266 0.000000 2.605583
LeftHandThumb1 -26.253704 0.000000 33.147579
Head 10.376506 -19.097601 8.277076
350
root 7.432075 27.777387 3.815388 15.232840 -23.702708 10.887297
RightUpLeg -79.723412 1.532785 -13.477155
RightLeg 77.768117 -0.000000 -0.000000
RightFoot -26.424744 -11.963514 18.519044
RightToeBase 16.703702 -0.000000 -0.000000
LeftUpLeg -72.928114 5.684243 -10.432003
LeftLeg 77.770674 -0.000000 -0.000000
LeftFoot -30.055755 17.985886 -19.691370
LeftToeBase 6.286237 -0.000000 -0.000000
Spine 72.968505 -12.367420 8.387760
RightShoulder 17.708395 -2.055010 -22.088107
RightArm 27.765788 18.153722 49.776716
RightForeArm 25.376312 -0.000000 25.583044
RightHand 12.098778 0.000000 -12.624085
RightHandThumb1 -24.326973 -0.000000 -32.862282
LeftShoulder -5.049408 22.904747 26.442924
LeftArm 62.110854 3.551252 -51.931905
LeftForeArm 11.376853 -0.000000 33.791522
LeftHand -14.274562 -0.000000 3.095622
LeftHandThumb1 -26.253704 0.000000 33.147579
Head 10.394523 -18.642804 7.938179
351
root 7.480774 27.531998 3.818660 14.914985 -23.896226 11.134593
RightUpLeg -80.353155 1.480344 -13.701373
RightLeg 78.943407 -0.000000 -0.000000
RightFoot -26.791538 -11.698216 18.589081
RightToeBase 16.502569 -0.000000 -0.000000
LeftUpLeg -73.436616 5.936609 -10.845412
LeftLeg 78.920780 -0.000000 -0.000000
LeftFoot -30.512567 17.872951 -19.603092
LeftToeBase 6.288439 -0.000000 -0.000000
Spine 73.068949 -12.500575 8.295589
RightShoulder 17.712367 -2.094767 -22.130146
RightArm 27.766070 18.447647 49.895431
RightForeArm 25.834862 -0.000000 25.079572
RightHand 11.852933 -0.000000 -12.762549
RightHandThumb1 -24.326973 -0.000000 -32.862282
LeftShoulder -4.939436 23.109188 26.476265
LeftArm 61.495734 4.045698 -51.549789
LeftForeArm 11.316348 -0.000000 34.264921
LeftHand -14.156303 -0.000000 3.563184
LeftHandThumb1 -26.253704 0.000000 33.147579
Head 10.372882 -18.184333 7.602178
352
root 7.526732 27.285160 3.822740 14.583740 -24.088495 11.358951
RightUpLeg -80.960232 1.437750 -13.895268
RightLeg 80.110373 -0.000000 -0.000000
RightFoot -27.127897 -11.433643 18.650670
RightToeBase 16.387813 -0.000000 -0.000000
LeftUpLeg -73.948429 6.243660 -11.250599
LeftLeg 80.090765 -0.000000 -0.000000
LeftFoot -30.916064 17.684588 -19.552630
LeftToeBase 6.247285 -0.000000 -0.000000
Spine 73.159660 -12.633040 8.220815
RightShoulder 17.703483 -2.158595 -22.166858
RightArm 27.807045 18.729180 49.989918
RightForeArm 26.314915 0.000000 24.548549
RightHand 11.870450 -0.000000 -12.774872
RightHandThumb1 -24.326973 -0.000000 -32.862282
LeftShoulder -4.866722 23.389196 26.464237
LeftArm 60.957866 4.532414 -51.180357
LeftForeArm 11.345123 -0.000000 34.707128
LeftHand -13.912779 -0.000000 3.979906
LeftHandThumb1 -26.253704 0.000000 33.147579
Head 10.334139 -17.679692 7.230947
